<svg width="220" height="220" viewBox="0 0 220 220" fill="none" xmlns="http://www.w3.org/2000/svg">
<path d="M110 201.667C160.626 201.667 201.667 160.626 201.667 110C201.667 59.3738 160.626 18.3333 110 18.3333C59.3741 18.3333 18.3335 59.3738 18.3335 110C18.3335 160.626 59.3741 201.667 110 201.667Z" fill="#F00500"/>
<path d="M144.994 115.855C144.937 116.176 144.003 117.127 143.063 117.826C140.313 119.837 135.392 121.71 130.39 122.61C127.543 123.125 124.696 123.206 123.836 122.787C123.28 122.507 123.2 122.289 123.401 121.573C123.819 120.083 125.177 118.445 127.285 116.909C128.362 116.136 132.728 113.483 134.756 112.366C138.102 110.533 140.812 109.444 142.645 109.181C143.224 109.1 143.923 109.077 144.135 109.181C144.501 109.318 144.897 110.378 145.051 111.65C145.137 112.326 145.097 115.317 144.994 115.855ZM98.0549 122.449C97.9403 122.69 97.3388 122.948 96.6627 123.045C95.9809 123.148 93.9127 123.085 92.7382 122.948C88.5101 122.386 84.0299 121.092 80.7643 119.499C78.9309 118.605 77.6132 117.706 76.6393 116.732L76.0778 116.153L76.0205 115.397C75.9174 114.079 75.9403 112.011 76.1007 111.272C76.2044 110.656 76.4137 110.063 76.7195 109.519C76.8742 109.318 76.8742 109.318 77.596 109.318C78.4726 109.318 79.2059 109.456 80.4033 109.834C82.8554 110.596 86.4992 112.429 90.945 115.099C94.6117 117.287 95.9867 118.364 97.0408 119.837C97.757 120.753 98.2325 122.048 98.0549 122.449V122.449ZM126.271 150.184C126.271 150.242 126.03 151.198 125.732 152.333C125.54 153.028 125.361 153.727 125.194 154.43C124.971 154.447 124.776 154.47 124.552 154.447H123.922L123.04 156.521C122.564 157.655 122.123 158.709 122.066 158.87L121.946 159.15L121.527 158.469L121.109 157.793V152.275L120.949 152.315C120.605 152.396 118.199 152.717 117.144 152.814C112.785 153.249 108.39 153.154 104.053 152.533C103.617 152.458 103.177 152.404 102.736 152.373C102.718 152.396 102.736 153.668 102.776 155.243L102.833 158.073L102.501 158.589C102.317 158.87 102.14 159.105 102.14 159.127C102.083 159.185 101.882 158.87 101.424 157.953C100.931 156.991 100.556 155.974 100.306 154.922L100.169 154.349L99.5502 154.384L98.9315 154.447L98.771 153.708C98.6837 153.259 98.6111 152.809 98.5533 152.356L98.496 151.72L97.9804 151.261L97.3216 150.7C97.2184 150.62 97.1783 150.482 97.1783 150.362V150.121L99.6705 150.144L102.163 150.161L102.237 150.419L102.317 150.683L103.177 150.723L106.523 150.82L109.015 150.877L109.651 149.886L110.31 148.889H111.146L111.129 146.815L111.106 144.742L110.012 144.266C106.483 142.713 104.414 140.943 103.635 138.789C103.475 138.348 103.475 138.187 103.435 136.199C103.417 134.223 103.417 134.045 103.555 133.604C103.689 133.116 103.95 132.672 104.31 132.316C104.67 131.96 105.117 131.705 105.606 131.576C105.95 131.473 106.843 131.473 111.547 131.473L117.081 131.496L117.7 131.794C118.296 132.039 118.812 132.445 119.19 132.968C119.671 133.604 119.814 134.102 119.814 135.317C119.814 137.053 119.694 138.548 119.516 139.144C119.252 139.964 118.862 140.737 118.359 141.436C117.362 142.713 115.552 143.985 113.89 144.564L113.415 144.742L113.438 146.838L113.455 148.93L113.896 148.97L114.331 149.01L114.933 149.904L115.506 150.803H118.181C119.654 150.803 120.949 150.82 121.069 150.837C121.269 150.883 121.31 150.86 121.504 150.522L121.745 150.161H124.037C125.755 150.081 126.271 150.121 126.271 150.184V150.184Z" fill="black"/>
<path d="M115.746 155.902C115.368 156.12 115.111 156.217 115.053 156.183C114.996 156.16 114.71 155.919 114.412 155.702L113.873 155.266L113.317 155.862C112.103 157.18 112.057 157.237 111.702 157.254C111.146 157.312 111.026 157.214 110.35 156.2C109.989 155.684 109.714 155.243 109.714 155.243C109.714 155.243 109.45 155.203 109.152 155.186L108.596 155.129L108.339 155.662L108.075 156.2L107.617 156.063C107.258 155.944 106.906 155.804 106.563 155.644L105.967 155.346V154.206L111.266 154.229L116.566 154.246L116.583 154.785C116.606 155.421 116.623 155.404 115.746 155.902V155.902Z" fill="black"/>
<path d="M165.556 131.598C165.539 131.512 165.539 131.368 165.522 131.156C159.958 130.63 154.344 131.209 149.005 132.861C143.666 134.513 138.707 137.205 134.412 140.781C134.412 140.781 130.333 122.047 111.209 122.047C92.0738 122.047 84.9868 140.781 84.9868 140.781C74.2675 129.243 59.9217 130.079 54.7368 130.836L54.7196 131.214C54.5592 134.101 54.6394 135.476 55.1207 137.287C56.6102 142.97 61.2165 149.226 68.4295 155.362C80.2431 165.405 96.2618 172.653 108.396 173.495C121.046 174.354 139.718 166.958 152.15 156.159C154.098 154.428 155.931 152.595 157.65 150.641C158.882 149.209 160.715 146.734 160.577 146.734C160.537 146.734 160.577 146.694 160.658 146.654C160.715 146.614 160.772 146.556 160.738 146.516C160.715 146.493 160.755 146.436 160.818 146.419C160.875 146.396 160.915 146.362 160.898 146.316C160.875 146.276 160.898 146.236 160.978 146.218C161.036 146.196 161.059 146.138 161.036 146.098C161.013 146.058 161.036 146.018 161.076 146.018C161.116 146.018 161.156 145.961 161.156 145.921C161.156 145.88 161.196 145.817 161.236 145.817C161.276 145.817 161.316 145.777 161.316 145.737C161.383 145.574 161.469 145.42 161.574 145.279C161.872 144.821 163.064 142.689 163.23 142.334C164.364 139.762 165.081 137.47 165.419 135.178C165.539 134.084 165.636 132.073 165.556 131.592V131.598ZM115.747 155.901C115.369 156.118 115.111 156.216 115.053 156.181C114.996 156.159 114.71 155.918 114.412 155.7L113.873 155.265L113.318 155.861C112.103 157.178 112.057 157.236 111.702 157.253C111.146 157.31 111.026 157.213 110.35 156.199C109.989 155.683 109.714 155.242 109.714 155.242C109.714 155.242 109.45 155.202 109.152 155.185L108.597 155.127L108.339 155.66L108.075 156.199L107.617 156.061C107.258 155.943 106.906 155.803 106.563 155.643L105.967 155.345V154.205L111.266 154.228L116.566 154.245L116.583 154.784C116.606 155.42 116.623 155.402 115.747 155.901V155.901ZM125.715 152.314C125.524 153.009 125.342 153.706 125.171 154.405C124.953 154.423 124.753 154.446 124.535 154.423H123.899L123.04 156.52C122.564 157.654 122.123 158.708 122.066 158.868L121.946 159.149L121.527 158.467L121.109 157.791V152.274L120.949 152.314C120.605 152.395 118.199 152.715 117.145 152.813C112.786 153.248 108.39 153.153 104.053 152.532C103.617 152.457 103.177 152.403 102.736 152.372C102.719 152.395 102.736 153.666 102.776 155.242L102.833 158.072L102.501 158.588C102.318 158.868 102.14 159.103 102.14 159.126C102.083 159.184 101.882 158.868 101.424 157.952C100.931 156.99 100.556 155.972 100.307 154.921L100.169 154.348L99.5503 154.388L98.9316 154.446L98.7712 153.706C98.6838 153.258 98.6112 152.807 98.5535 152.354L98.4962 151.718L97.9806 151.26C97.7653 151.068 97.5456 150.881 97.3217 150.699C97.2186 150.618 97.1785 150.481 97.1785 150.361V150.12L99.6707 150.143L102.163 150.16L102.237 150.418L102.318 150.681L103.177 150.722L106.523 150.819L109.015 150.876L109.651 149.885L110.31 148.888H111.146L111.129 146.814L111.106 144.74L110.012 144.265C106.483 142.712 104.414 140.942 103.635 138.788C103.475 138.347 103.475 138.186 103.435 136.198C103.418 134.222 103.418 134.044 103.555 133.603C103.69 133.115 103.95 132.671 104.31 132.315C104.67 131.959 105.117 131.704 105.606 131.575C105.95 131.472 106.844 131.472 111.547 131.472L117.082 131.495L117.7 131.792C118.296 132.038 118.812 132.445 119.19 132.967C119.671 133.603 119.814 134.101 119.814 135.316C119.814 137.052 119.694 138.547 119.516 139.143C119.252 139.962 118.862 140.736 118.359 141.435C117.362 142.712 115.552 143.984 113.89 144.563L113.415 144.74L113.438 146.837L113.455 148.928L113.896 148.968L114.332 149.009L114.933 149.902L115.506 150.802H118.182C119.654 150.802 120.949 150.819 121.069 150.836C121.27 150.882 121.31 150.859 121.505 150.521L121.745 150.16H124.037C125.813 150.16 126.328 150.183 126.328 150.24C126.271 150.223 126.008 151.197 125.71 152.314H125.715Z" fill="white"/>
<path d="M165.401 129.565C165.361 128.639 165.3 127.715 165.218 126.792C164.358 117.746 162.049 110.355 157.667 102.523C157.503 102.255 157.357 101.975 157.231 101.687C157.191 101.63 157.174 101.572 157.151 101.532C157.77 99.6759 160.302 91.9244 162.307 83.0613C165.04 71.0301 166.776 56.9593 161.477 52.7369C161.477 52.7369 152.31 52.0608 140.038 64.0921C136.709 67.415 133.661 71.0244 130.951 74.8686L130.092 74.5936C125.161 72.9789 120.047 71.9877 114.87 71.6431C113.317 71.5285 107.519 71.5285 105.629 71.6431C99.9109 72.0212 95.5223 72.8806 90.5437 74.6108C90.3605 74.6833 90.1752 74.7501 89.988 74.8113C87.1795 70.9758 84.0393 67.3947 80.6036 64.1093C67.8275 52.0207 58.3229 52.7197 58.3229 52.7197C52.7083 57.0796 54.6218 71.7863 57.5208 84.2186C58.9604 90.3188 60.6771 96.3502 62.6656 102.294C62.6009 102.443 62.5282 102.588 62.4479 102.73C57.8072 112.137 55.2921 121.2 54.6963 130.843C59.8926 130.086 74.2213 129.227 84.9577 140.783C84.9577 140.783 92.0505 122.054 111.18 122.054C130.304 122.054 134.389 140.788 134.389 140.788C138.685 137.217 143.644 134.528 148.982 132.877C154.319 131.225 159.93 130.643 165.493 131.163L165.395 129.565H165.401ZM66.4354 94.7775C66.4354 94.7775 58.9874 76.1462 60.8952 65.5014C61.2161 63.7139 61.8119 62.1384 62.7515 60.9468C62.7515 60.9468 71.1963 61.7832 84.826 76.9254C84.826 76.9254 82.2364 78.1801 78.7702 80.8499C78.7702 80.8499 78.7473 80.8671 78.7301 80.8671C73.764 84.6577 69.5873 89.3833 66.4354 94.7775V94.7775ZM98.0604 122.449C97.9343 122.69 97.3385 122.948 96.6624 123.045C95.9807 123.148 93.9124 123.085 92.738 122.948C88.5098 122.386 84.0296 121.092 80.764 119.499C78.9307 118.605 77.613 117.706 76.639 116.732L76.0775 116.153L76.0202 115.397C75.9171 114.079 75.94 112.011 76.1005 111.272C76.204 110.656 76.4133 110.063 76.7192 109.519C76.8739 109.318 76.8739 109.318 77.5958 109.318C78.4723 109.318 79.2057 109.456 80.4031 109.834C82.8551 110.596 86.4989 112.429 90.9447 115.099C94.6114 117.287 95.9864 118.364 97.0406 119.837C97.7567 120.754 98.2322 122.048 98.0546 122.449H98.0604ZM144.994 115.855C144.936 116.176 144.003 117.127 143.063 117.826C140.313 119.837 135.392 121.71 130.39 122.61C127.543 123.125 124.695 123.206 123.836 122.787C123.28 122.507 123.2 122.289 123.4 121.573C123.819 120.083 125.177 118.445 127.285 116.909C128.362 116.13 132.728 113.483 134.756 112.366C138.101 110.533 140.811 109.444 142.645 109.181C143.223 109.1 143.922 109.077 144.14 109.181C144.501 109.318 144.896 110.378 145.057 111.65C145.137 112.326 145.097 115.317 144.999 115.855H144.994ZM141.688 80.8499L141.648 80.827C139.825 79.3362 137.864 78.0221 135.793 76.9025C148.964 61.7603 157.105 60.9238 157.105 60.9238C158.005 62.1384 158.583 63.691 158.904 65.4843C160.755 76.1233 153.565 94.7718 153.565 94.7718C150.546 89.4046 146.512 84.6761 141.688 80.8499Z" fill="#FFA409"/>
<path d="M158.927 65.4842C157.369 65.2895 150.018 65.2493 141.688 80.8499L141.648 80.827C139.825 79.3362 137.865 78.0221 135.793 76.9025C148.964 61.7603 157.105 60.9238 157.105 60.9238C158.022 62.1384 158.607 63.691 158.922 65.4842H158.927Z" fill="#FF9300"/>
<path d="M153.582 94.7764C150.563 89.4028 146.523 84.6715 141.688 80.8488C150.018 65.2483 157.352 65.2884 158.921 65.4832C160.778 76.1451 153.582 94.7764 153.582 94.7764ZM159.219 65.5405L158.921 65.4832L159.219 65.5405Z" fill="#FF8300"/>
<path d="M84.8263 76.9025C84.8263 76.9025 82.2368 78.1629 78.7706 80.827C78.7706 80.827 78.7477 80.8499 78.7305 80.8499C70.1024 65.2264 62.5055 65.2895 60.8784 65.4842C61.1935 63.691 61.7951 62.1212 62.7289 60.9238C62.7519 60.9238 71.1966 61.7603 84.8263 76.9082V76.9025Z" fill="#FF9300"/>
<path d="M78.7477 80.8488C73.7717 84.6384 69.5885 89.3686 66.4357 94.7707C66.4357 94.7707 58.9878 76.1451 60.8956 65.4832C62.5112 65.2884 70.1196 65.2483 78.7477 80.8488V80.8488Z" fill="#FF8300"/>
<path d="M60.9014 65.4844L60.5806 65.5417L60.8957 65.4844H60.9014Z" fill="#FF8300"/>
<path d="M133.421 105.118C133.421 105.118 127.044 105.513 127.841 100.534C128.643 95.5498 133.621 94.954 135.014 95.1488C136.411 95.3493 141.986 97.3431 140.995 101.531C139.998 105.713 138.6 104.911 137.804 105.118C137.007 105.312 133.421 105.118 133.421 105.118ZM86.3958 105.118C86.3958 105.118 80.025 105.513 80.8213 100.534C81.6234 95.5498 86.5963 94.954 87.9943 95.1488C89.3864 95.3493 94.9666 97.3431 93.9698 101.531C92.9729 105.713 91.5807 104.911 90.7844 105.118C89.9823 105.312 86.4015 105.118 86.4015 105.118H86.3958Z" fill="white"/>
</svg>
