<svg width="220" height="220" viewBox="0 0 220 220" fill="none" xmlns="http://www.w3.org/2000/svg">
<circle cx="110" cy="110" r="110" fill="black"/>
<g clip-path="url(#clip0_301_2858)">
<path d="M164.434 139.26L146.275 158.442C145.88 158.859 145.402 159.191 144.872 159.418C144.341 159.645 143.768 159.762 143.19 159.762H57.1081C56.6974 159.762 56.2956 159.644 55.9521 159.422C55.6086 159.2 55.3384 158.884 55.1747 158.513C55.011 158.142 54.9609 157.732 55.0305 157.333C55.1002 156.935 55.2866 156.565 55.5668 156.269L73.7393 137.086C74.133 136.671 74.6091 136.339 75.1381 136.112C75.6671 135.885 76.2378 135.767 76.815 135.766H162.892C163.303 135.766 163.704 135.885 164.048 136.106C164.391 136.328 164.661 136.644 164.826 137.015C164.989 137.386 165.039 137.796 164.97 138.195C164.9 138.594 164.714 138.964 164.434 139.26ZM146.275 100.632C145.88 100.215 145.402 99.8826 144.872 99.6555C144.341 99.4286 143.768 99.3115 143.19 99.3119H57.1081C56.6974 99.3119 56.2956 99.43 55.9521 99.6519C55.6086 99.8738 55.3384 100.19 55.1747 100.561C55.011 100.932 54.9609 101.342 55.0305 101.741C55.1002 102.139 55.2866 102.509 55.5668 102.805L73.7393 121.988C74.133 122.403 74.6091 122.735 75.1381 122.962C75.6671 123.189 76.2378 123.306 76.815 123.307H162.892C163.303 123.307 163.704 123.189 164.048 122.967C164.391 122.745 164.661 122.429 164.826 122.058C164.989 121.687 165.039 121.277 164.97 120.879C164.9 120.48 164.714 120.11 164.434 119.814L146.275 100.632ZM57.1081 86.8527H143.19C143.768 86.8529 144.341 86.7359 144.872 86.5089C145.402 86.2818 145.88 85.9496 146.275 85.5329L164.434 66.3504C164.714 66.0546 164.9 65.6846 164.97 65.2859C165.039 64.8871 164.989 64.4771 164.826 64.106C164.661 63.735 164.391 63.4191 164.048 63.1973C163.704 62.9754 163.303 62.8572 162.892 62.8572H76.815C76.2378 62.8581 75.6671 62.9758 75.1381 63.2028C74.6091 63.4298 74.133 63.7614 73.7393 64.1769L55.5715 83.3595C55.2915 83.6549 55.1052 84.0246 55.0354 84.4228C54.9656 84.8211 55.0153 85.2308 55.1785 85.6017C55.3416 85.9726 55.6111 86.2884 55.9538 86.5106C56.2966 86.7329 56.6978 86.8517 57.1081 86.8527Z" fill="url(#paint0_linear_301_2858)"/>
</g>
<defs>
<linearGradient id="paint0_linear_301_2858" x1="64.2853" y1="162.071" x2="153.032" y2="60.5045" gradientUnits="userSpaceOnUse">
<stop offset="0.08" stop-color="#9945FF"/>
<stop offset="0.3" stop-color="#8752F3"/>
<stop offset="0.5" stop-color="#5497D5"/>
<stop offset="0.6" stop-color="#43B4CA"/>
<stop offset="0.72" stop-color="#28E0B9"/>
<stop offset="0.97" stop-color="#19FB9B"/>
</linearGradient>
<clipPath id="clip0_301_2858">
<rect width="110" height="96.9048" fill="white" transform="translate(55 62.8572)"/>
</clipPath>
</defs>
</svg>
